<?xml version="1.0" encoding="utf-8"?>
<!-- Generator: Adobe Illustrator 16.0.0, SVG Export Plug-In . SVG Version: 6.00 Build 0)  -->
<!DOCTYPE svg PUBLIC "-//W3C//DTD SVG 1.1//EN" "http://www.w3.org/Graphics/SVG/1.1/DTD/svg11.dtd">
<svg version="1.1" xmlns="http://www.w3.org/2000/svg" xmlns:xlink="http://www.w3.org/1999/xlink" x="0px" y="0px"
	 width="49.652px" height="49.652px" viewBox="0 0 49.652 49.652" enable-background="new 0 0 49.652 49.652" xml:space="preserve">
<g id="Capa_1" display="none">
	<g display="inline">
		<g>
			<path fill="#FFFFFF" d="M24.826,0C11.137,0,0,11.137,0,24.826s11.138,24.826,24.826,24.826s24.826-11.138,24.826-24.826
				S38.516,0,24.826,0z M31,25.7h-4.039c0,6.453,0,14.396,0,14.396h-5.984c0,0,0-7.866,0-14.396h-2.846v-5.088h2.846v-3.291
				c0-2.357,1.12-6.04,6.04-6.04l4.435,0.017v4.939c0,0-2.695,0-3.219,0c-0.524,0-1.27,0.262-1.27,1.386v2.99h4.561L31,25.7z"/>
		</g>
	</g>
</g>
<g id="Layer_2">
	<path fill="#FFFFFF" d="M24.826,0C11.137,0,0,11.137,0,24.826s11.138,24.826,24.826,24.826s24.826-11.138,24.826-24.826
		S38.516,0,24.826,0z M38.345,17.892c0.014,0.299,0.021,0.6,0.021,0.902c0,9.218-7.017,19.847-19.847,19.847
		c-3.939,0-7.606-1.155-10.693-3.134c0.546,0.064,1.101,0.098,1.664,0.098c3.268,0,6.276-1.116,8.663-2.986
		c-3.052-0.057-5.628-2.073-6.516-4.845c0.426,0.082,0.863,0.126,1.313,0.126c0.636,0,1.252-0.086,1.837-0.245
		c-3.191-0.642-5.595-3.46-5.595-6.84c0-0.029,0-0.059,0-0.088c0.94,0.522,2.016,0.837,3.16,0.873
		c-1.872-1.251-3.104-3.387-3.104-5.807c0-1.278,0.344-2.477,0.945-3.507c3.44,4.221,8.58,6.998,14.377,7.288
		c-0.119-0.51-0.181-1.043-0.181-1.589c0-3.853,3.124-6.976,6.975-6.976c2.007,0,3.819,0.847,5.092,2.202
		c1.589-0.313,3.082-0.893,4.43-1.692c-0.521,1.629-1.627,2.996-3.066,3.859c1.41-0.169,2.755-0.544,4.006-1.099
		C40.89,15.68,39.708,16.909,38.345,17.892z"/>
</g>
</svg>
